<svg xmlns="http://www.w3.org/2000/svg" width="512" height="512" viewBox="0 0 512 512"><path fill="#107C7D" d="M512 472c0 22.1-17.9 40-40 40H40c-22.1 0-40-17.9-40-40V40C0 17.9 17.9 0 40 0h432c22.1 0 40 17.9 40 40v432z"/><path fill-rule="evenodd" clip-rule="evenodd" fill="#FFF" d="M256.3 244.3h29.5c3-1.7 1.5-4.6 4.1-6.6 4.6-3.5 14.1-1.2 19.3 0 2 1.1 1.1 5 3.1 6.1 28.2 1.5 59.9-.5 88 1 .6 7.9-9.5 6.6-16.8 6.6-8.1 0-17.2-.5-21.9.5.6 6.4 9.6 4.1 15.8 4.1h19.8c2 9-8.2 6.6-14.8 6.6-7.5 0-15.9-.4-20.9.5-1.5 9.6 10.9 6.6 18.3 6.6h24.4c.3-7.7-.6-16.6.5-23.4 4.8-3.4 18.1-2.8 21.9 1 1.7 5.4-1 15.2 1.5 19.8 8.1 4.3 24.2.5 34.6 2.5-.1 10.6-15.7 7.6-25.9 7.6h-66.7c-8.8 0-27.5 1.8-30.5-2.5s.5-12.4-1-17.8c-2.1-7.2-24.4-8.1-27.5 0-2.2 5.7 1 10.6-1 17.3-5.4 3.5-17.4 4.3-21.9-.5-2.5-9.2 3.1-18.2-4.6-21.4-7.4-3.1-26.9-1-29 4.1-2.2 5.1.5 9.6-.5 16.8-4.6 5.2-17.8 5-22.4 0-.7-7.4 1.5-12.6-1-17.3-3.6-6.9-21.5-4.1-31.5-4.1-14.4 0-26.1-.4-35.1.5 1.1 5.9 10.2 3.6 16.3 3.6 7.1 0 14.4-.4 19.3.5 1.4 8.4-8.4 6.1-14.8 6.1H164c-1.8 9.6 9 7.1 16.3 7.1 8.1 0 17.4-.4 22.9.5.4 9.4-13.6 7.1-23.4 7.1-14.3 0-30.1 1.8-37.7-3.1-1.5-7.4-2.1-22.3.5-29 26.8-2.4 58-.4 86.5-1 2.8-.5 1.8-4.6 3.6-6.1 4.5-2.3 12.8-3.3 17.8-1 4.3 2 3.3 4.4 5.8 7.3zM43.6 220.4c-.5-1.9 1.5-3.4 2.5-4.6 42.7-47.9 112.4-79.7 201-81.4 89.7-1.8 162.3 31.2 206.6 76.3.9.9 4.4 3 2.5 3.1-30.1-26.8-74-44.6-127.7-42.2-45.9 2-84.4 15.3-110.4 38.7-3.1 2.8-7.7 9.3-10.7 10.2-4.9 1.5-13.9 0-20.9 0-48-.1-94.9-.1-142.9-.1z"/><path fill-rule="evenodd" clip-rule="evenodd" fill="#C77D34" d="M461.3 296.2c.5 1.9-1.5 3.4-2.5 4.6-20.8 23.4-48.5 42-79.9 56-33.3 14.9-74.3 24.9-119.6 24.9-94.3 0-165-29.3-211.1-78.4-3.7-4-2.9-3.6.5-.5 29.7 27.4 73.8 42.8 127.7 41.7 45.1-.9 83.7-16.3 109.4-38.7 2.6-2.3 11.2-9.7 11.2-9.7h20.9c48.2.1 96.1.1 143.4.1z"/><path fill-rule="evenodd" clip-rule="evenodd" fill="#FFF" d="M81.8 267.2c6.4-5.8 10.4-14 15.8-20.9 9.5-2.8 31.4-4.2 38.7 1.5-.3 8.5.6 18.3-.5 25.9-4.9 4-16.8 4.7-21.9.5-1-5.4-.3-12.6-.5-18.8-9.4 7.3-13.1 22-31 21.9-20.3-.1-28.7-23.1-39.2-33.1 11.5.4 20.9-1.6 26.5 4.1 5.1 5.4 7.2 13.2 12.1 18.9z"/></svg>